# Blender 3.3.1
# www.blender.org
mtllib magma_block.mtl
o Cube
v 1.000000 1.000000 -1.000000
v 1.000000 -1.000000 -1.000000
v 1.000000 1.000000 1.000000
v 1.000000 -1.000000 1.000000
v -1.000000 1.000000 -1.000000
v -1.000000 -1.000000 -1.000000
v -1.000000 1.000000 1.000000
v -1.000000 -1.000000 1.000000
vn -0.0000 1.0000 -0.0000
vn -0.0000 -0.0000 1.0000
vn -1.0000 -0.0000 -0.0000
vn -0.0000 -1.0000 -0.0000
vn 1.0000 -0.0000 -0.0000
vn -0.0000 -0.0000 -1.0000
vt 0.671390 0.043408
vt 0.659329 0.046126
vt 0.330886 0.956591
vt 0.983640 0.032537
vt 0.342527 0.037973
vt 0.014084 0.953874
vt 0.675101 0.948400
vt 0.653762 0.043370
vt 0.660257 0.967425
vt 0.345310 0.037935
vt 0.984568 0.951118
vt 0.343455 0.956553
vt 0.984481 0.046126
vt 0.657473 0.951194
vt 0.333669 0.048882
vt 0.340671 0.953912
vt 0.675188 0.043408
vt 0.017795 0.043447
vt 0.986337 0.953835
vt 0.656545 0.959233
vt 0.659329 0.043485
vt 0.342527 0.964669
vt 0.346238 0.048921
vt 0.666838 0.959271
s 0
usemtl Material.001
f 1/1/1 5/13/1 7/19/1 3/7/1
f 4/10/2 3/8/2 7/20/2 8/22/2
f 8/23/3 7/21/3 5/14/3 6/16/3
f 6/17/4 2/4/4 4/11/4 8/24/4
f 2/5/5 1/2/5 3/9/5 4/12/5
f 6/18/6 5/15/6 1/3/6 2/6/6
